# xmcd
#
# Track frame offsets:
#	150
#	11786
#	30847
#	47364
#	84554
#	114540
#	134575
#
# Disc length: 2175 seconds
# Revision: 0
# Processed by: cddbd v1.5.2PL0 Copyright (c) Steve Scherf et al.
# Submitted via: dBpowerAMP V12.0
#
DISCID=4e087d07
DTITLE=Roy Buchanan - Live Stock
DYEAR=1975
DGENRE=Modern Blues
TTITLE0=Reelin' And Rockin
TTITLE1=Hot Cha
TTITLE2=Further On Up The Road
TTITLE3=Roy's Bluz
TTITLE4=Can I Change My Mind
TTITLE5=I'm A Ram
TTITLE6=I'm Evil
EXTD=
EXTT0=
EXTT1=
EXTT2=
EXTT3=
EXTT4=
EXTT5=
EXTT6=
PLAYORDER=
